<?xml version="1.0" standalone="no"?>
<!DOCTYPE svg PUBLIC "-//W3C//DTD SVG 20010904//EN"
 "http://www.w3.org/TR/2001/REC-SVG-20010904/DTD/svg10.dtd">
<svg version="1.0" xmlns="http://www.w3.org/2000/svg"
 width="700.000000pt" height="700.000000pt" viewBox="0 0 700.000000 700.000000"
 preserveAspectRatio="xMidYMid meet">
<metadata>
Created by potrace 1.14, written by Peter Selinger 2001-2017
</metadata>
<g transform="translate(0.000000,700.000000) scale(0.100000,-0.100000)"
fill="#000000" stroke="none">
<path d="M1560 6610 l0 -390 385 0 385 0 0 390 0 390 -385 0 -385 0 0 -390z"/>
<path d="M3110 6610 l0 -390 -385 0 -385 0 0 -385 0 -385 385 0 385 0 0 385 0
385 390 0 390 0 0 -385 0 -385 390 0 390 0 0 385 0 385 385 0 385 0 0 390 0
390 -385 0 -385 0 0 -390 0 -390 -390 0 -390 0 0 390 0 390 -390 0 -390 0 0
-390z"/>
<path d="M780 5835 l0 -385 385 0 385 0 0 385 0 385 -385 0 -385 0 0 -385z"/>
<path d="M5450 5835 l0 -385 385 0 385 0 0 385 0 385 -385 0 -385 0 0 -385z"/>
<path d="M0 5055 l0 -385 390 0 390 0 0 385 0 385 -390 0 -390 0 0 -385z"/>
<path d="M6220 5055 l0 -385 -385 0 -385 0 0 -390 0 -390 385 0 385 0 0 -390
0 -390 -383 0 -384 0 -6 -382 c-3 -210 -3 -386 -1 -390 3 -4 178 -8 390 -8
l384 0 0 -385 0 -385 -387 -2 -388 -3 -3 -388 -2 -387 -385 0 -385 0 0 384 c0
212 -4 387 -8 390 -4 2 -180 2 -390 -1 l-382 -6 0 -384 0 -383 -390 0 -390 0
0 385 0 385 -390 0 -390 0 0 -385 0 -385 -385 0 -385 0 0 -390 0 -390 385 0
385 0 0 390 0 390 390 0 390 0 0 -390 0 -390 390 0 390 0 0 390 0 390 390 0
390 0 0 -390 0 -390 385 0 385 0 0 390 0 390 390 0 390 0 0 390 0 390 390 0
390 0 0 385 0 385 -390 0 -390 0 0 390 0 390 390 0 390 0 0 390 0 390 -390 0
-390 0 0 390 0 390 390 0 390 0 0 385 0 385 -390 0 -390 0 0 -385z"/>
<path d="M2337 4663 c-4 -3 -7 -179 -7 -390 l0 -383 390 0 390 0 0 -780 0
-780 390 0 390 0 0 780 0 780 390 0 390 0 -2 388 -3 387 -1161 2 c-638 2
-1164 0 -1167 -4z"/>
<path d="M780 4275 l0 -385 -390 0 -390 0 0 -390 0 -390 390 0 390 0 0 -390 0
-390 -390 0 -390 0 0 -385 0 -385 390 0 390 0 0 385 0 385 385 0 385 0 0 390
0 390 -385 0 -385 0 0 390 0 390 385 0 385 0 0 385 0 385 -385 0 -385 0 0
-385z"/>
<path d="M780 1165 l0 -385 385 0 385 0 0 385 0 385 -385 0 -385 0 0 -385z"/>
</g>
</svg>
