<svg width="1920" height="825" viewBox="0 0 1920 825" fill="none" xmlns="http://www.w3.org/2000/svg">
<path d="M0 0H1920V825H0V0Z" fill="white"/>
<path d="M209.1 52.669L138.027 0H289.444L218.714 52.669H209.1ZM709.015 52.669L637.942 0H789.358L718.628 52.669H709.015ZM1201.37 52.669L1130.65 0H1282.06L1210.99 52.669H1201.37ZM1701.29 52.669L1630.56 0H1781.98L1710.9 52.669H1701.29Z" fill="#FAFAFA"/>
<path d="M329.27 0H439.485L218.712 164.498H208.755L0 9.14699V0H98.5408L184.034 63.7339C187.124 65.9469 192.961 67.4222 199.142 67.4222H228.67C234.85 67.4222 240.343 65.9321 243.433 63.7339L329.27 0ZM829.185 0H940.086L718.283 164.498H708.67L487.554 0H598.455L683.948 63.7339C687.039 65.9321 692.876 67.4222 699.056 67.4222H728.584C734.764 67.4222 740.258 65.9321 743.348 63.7339L829.185 0ZM1321.55 0H1432.45L1211.33 164.498H1201.72L980.601 0H1090.82L1176.65 63.7339C1179.74 65.9321 1185.24 67.4222 1191.42 67.4222H1220.94C1227.12 67.4222 1232.96 65.9321 1236.05 63.7339L1321.55 0ZM1920 0V9.14699L1711.24 164.498H1701.29L1480.52 0H1590.73L1676.57 63.7339C1679.66 65.9321 1685.15 67.4222 1691.33 67.4222H1720.86C1727.04 67.4222 1732.88 65.9321 1735.97 63.7339L1821.46 0H1920Z" fill="#FAFAFA"/>
<path d="M1920 38.6538V116.698L1711.24 272.05H1701.29L1486.01 111.83C1484.47 110.731 1482.31 109.817 1479.73 109.173C1477.15 108.528 1474.23 108.173 1471.24 108.141H1441.72C1435.54 108.141 1429.7 109.617 1426.61 111.83L1211.33 272.05H1201.72L986.094 111.83C984.586 110.719 982.433 109.795 979.845 109.149C977.257 108.502 974.324 108.155 971.331 108.141H948.67C942.489 108.141 936.996 109.617 933.906 111.83L718.283 272.05H708.67L493.391 111.83C491.812 110.713 489.595 109.788 486.952 109.143C484.308 108.497 481.324 108.153 478.283 108.141H448.755C442.919 108.141 437.082 109.617 433.991 111.83L218.712 272.05H208.755L0 116.698V38.6538L184.034 175.564C187.124 177.762 192.961 179.252 199.142 179.252H228.67C231.652 179.216 234.565 178.86 237.144 178.216C239.723 177.571 241.886 176.66 243.433 175.564L458.712 15.3438H468.67L683.948 175.564C687.039 177.762 692.532 179.252 698.712 179.252H728.24C734.421 179.252 740.258 177.762 743.348 175.564L958.627 15.3438H961.373L1176.65 175.564C1179.74 177.762 1185.58 179.252 1191.76 179.252H1221.29C1227.47 179.252 1232.96 177.762 1236.05 175.564L1451.33 15.3438H1461.29L1676.57 175.564C1679.66 177.762 1685.49 179.252 1691.33 179.252H1720.86C1727.04 179.252 1732.88 177.762 1735.97 175.564L1920 38.6538ZM1460.94 772.331L1532.02 825H1380.6L1451.33 772.331H1460.94Z" fill="#FAFAFA"/>
<path d="M1920 146.205V224.249L1711.24 379.453H1701.29L1486.01 219.381C1484.52 218.261 1482.38 217.33 1479.78 216.682C1477.19 216.034 1474.24 215.693 1471.24 215.692H1441.72C1438.66 215.674 1435.65 216.006 1433 216.655C1430.34 217.303 1428.14 218.244 1426.61 219.381L1211.33 379.453H1201.72L986.094 219.381C984.641 218.249 982.5 217.309 979.899 216.659C977.299 216.01 974.338 215.675 971.331 215.692H948.67C942.489 215.692 936.996 217.02 933.906 219.381L718.283 379.453H708.67L493.391 219.381C491.864 218.244 489.659 217.303 487.003 216.655C484.347 216.006 481.337 215.674 478.283 215.692H448.755C442.919 215.692 437.082 217.02 433.991 219.381L218.712 379.453H208.755L0 224.249V146.205L184.034 283.114C187.124 285.313 192.961 286.803 199.142 286.803H228.67C231.652 286.767 234.565 286.411 237.144 285.766C239.723 285.122 241.886 284.21 243.433 283.114L458.712 122.895H468.67L683.948 283.114C687.039 285.313 692.532 286.803 698.712 286.803H728.24C734.421 286.803 740.258 285.313 743.348 283.114L958.627 122.895H961.373L1176.65 283.114C1179.74 285.313 1185.58 286.803 1191.76 286.803H1221.29C1227.47 286.803 1232.96 285.313 1236.05 283.114L1451.33 122.895H1461.29L1676.57 283.114C1679.66 285.313 1685.49 286.803 1691.33 286.803H1720.86C1727.04 286.803 1732.88 285.313 1735.97 283.114L1920 146.205Z" fill="#FAFAFA"/>
<path d="M1920 253.757V331.802L1711.24 487.006H1701.29L1486.01 326.933C1484.52 325.813 1482.38 324.882 1479.78 324.235C1477.19 323.587 1474.24 323.245 1471.24 323.245H1441.72C1438.66 323.227 1435.65 323.559 1433 324.207C1430.34 324.856 1428.14 325.797 1426.61 326.933L1211.33 487.006H1201.72L986.094 326.933C984.641 325.802 982.5 324.861 979.899 324.212C977.299 323.562 974.338 323.228 971.331 323.245H948.67C942.489 323.245 936.996 324.573 933.906 326.933L718.283 487.006H708.67L493.391 326.933C491.864 325.797 489.659 324.856 487.003 324.207C484.347 323.559 481.337 323.227 478.283 323.245H448.755C442.919 323.245 437.082 324.573 433.991 326.933L218.712 487.006H208.755L0 331.802V253.757L184.034 390.52C185.561 391.656 187.766 392.597 190.422 393.246C193.077 393.894 196.088 394.226 199.142 394.208H228.67C234.506 394.208 240.343 392.88 243.433 390.52L458.712 230.447H468.67L683.948 390.52C687.039 392.88 692.532 394.208 698.712 394.208H728.24C731.294 394.226 734.305 393.894 736.96 393.246C739.616 392.597 741.821 391.656 743.348 390.52L958.627 230.447H961.373L1176.65 390.52C1178.18 391.656 1180.38 392.597 1183.04 393.246C1185.7 393.894 1188.71 394.226 1191.76 394.208H1221.29C1227.47 394.208 1232.96 392.88 1236.05 390.52L1451.33 230.447H1461.29L1676.57 390.52C1679.66 392.88 1685.49 394.208 1691.33 394.208H1720.86C1723.91 394.226 1726.92 393.894 1729.58 393.246C1732.23 392.597 1734.44 391.656 1735.97 390.52L1920 253.757Z" fill="#FAFAFA"/>
<path d="M1920 361.304V439.349L1711.24 594.553H1701.29L1486.01 434.48C1484.52 433.36 1482.38 432.429 1479.78 431.781C1477.19 431.134 1474.24 430.792 1471.24 430.792H1441.72C1438.66 430.774 1435.65 431.106 1433 431.754C1430.34 432.402 1428.14 433.344 1426.61 434.48L1211.33 594.553H1201.72L986.094 434.48C984.641 433.349 982.5 432.408 979.899 431.759C977.299 431.109 974.338 430.775 971.331 430.792H948.67C942.489 430.792 936.996 432.12 933.906 434.48L718.283 594.553H708.67L493.391 434.48C491.864 433.344 489.659 432.402 487.003 431.754C484.347 431.106 481.337 430.774 478.283 430.792H448.755C442.919 430.792 437.082 432.12 433.991 434.48L218.712 594.553H208.755L0 439.349V361.304L184.034 498.067C185.561 499.203 187.766 500.144 190.422 500.793C193.077 501.441 196.088 501.773 199.142 501.755H228.67C234.506 501.755 240.343 500.427 243.433 498.067L458.712 337.994H468.67L683.948 498.067C687.039 500.427 692.532 501.755 698.712 501.755H728.24C731.294 501.773 734.305 501.441 736.96 500.793C739.616 500.144 741.821 499.203 743.348 498.067L958.627 337.994H961.373L1176.65 498.067C1178.18 499.203 1180.38 500.144 1183.04 500.793C1185.7 501.441 1188.71 501.773 1191.76 501.755H1221.29C1227.47 501.755 1232.96 500.427 1236.05 498.067L1451.33 337.994H1461.29L1676.57 498.067C1679.66 500.427 1685.49 501.755 1691.33 501.755H1720.86C1723.91 501.773 1726.92 501.441 1729.58 500.793C1732.23 500.144 1734.44 499.203 1735.97 498.067L1920 361.304Z" fill="#FAFAFA"/>
<path d="M1920 468.857V546.754L1711.24 702.105H1701.29L1486.01 541.885C1484.46 540.79 1482.3 539.878 1479.72 539.234C1477.14 538.589 1474.23 538.233 1471.24 538.197H1441.72C1435.54 538.197 1429.7 539.687 1426.61 541.885L1211.33 702.105H1201.72L986.094 541.885C984.581 540.776 982.427 539.854 979.84 539.208C977.253 538.562 974.322 538.214 971.331 538.197H948.67C942.489 538.197 936.996 539.687 933.906 541.885L718.283 702.105H708.67L493.391 541.885C491.805 540.772 489.586 539.849 486.944 539.204C484.302 538.559 481.322 538.212 478.283 538.197H448.755C445.773 538.233 442.86 538.589 440.281 539.234C437.702 539.878 435.539 540.79 433.991 541.885L218.712 702.105H208.755L0 546.754V468.857L184.034 605.619C185.561 606.756 187.766 607.697 190.422 608.345C193.077 608.994 196.088 609.326 199.142 609.308H228.67C234.506 609.308 240.343 607.98 243.433 605.619L458.712 445.547H468.67L683.948 605.619C687.039 607.98 692.532 609.308 698.712 609.308H728.24C731.294 609.326 734.305 608.994 736.96 608.345C739.616 607.697 741.821 606.756 743.348 605.619L958.627 445.547H961.373L1176.65 605.619C1178.18 606.756 1180.38 607.697 1183.04 608.345C1185.7 608.994 1188.71 609.326 1191.76 609.308H1221.29C1227.47 609.308 1232.96 607.98 1236.05 605.619L1451.33 445.547H1461.29L1676.57 605.619C1679.66 607.98 1685.49 609.308 1691.33 609.308H1720.86C1723.91 609.326 1726.92 608.994 1729.58 608.345C1732.23 607.697 1734.44 606.756 1735.97 605.619L1920 468.857Z" fill="#FAFAFA"/>
<path d="M1920 576.261V654.306L1711.24 809.657H1701.29L1486.01 649.437C1484.46 648.341 1482.3 647.43 1479.72 646.785C1477.14 646.141 1474.23 645.785 1471.24 645.749H1441.72C1435.54 645.749 1429.7 647.239 1426.61 649.437L1211.33 809.657H1201.72L986.094 649.437C984.581 648.328 982.427 647.406 979.84 646.76C977.253 646.114 974.322 645.765 971.331 645.749H948.67C942.489 645.749 936.996 647.239 933.906 649.437L718.283 809.657H708.67L493.391 649.437C491.805 648.323 489.586 647.401 486.944 646.756C484.302 646.111 481.322 645.764 478.283 645.749H448.755C445.773 645.785 442.86 646.141 440.281 646.785C437.702 647.43 435.539 648.341 433.991 649.437L218.712 809.657H208.755L0 654.306V576.261L184.034 713.171C187.124 715.384 192.961 716.859 199.142 716.859H228.67C234.506 716.859 240.343 715.384 243.433 713.171L458.712 552.951H468.67L683.948 713.171C687.039 715.384 692.532 716.859 698.712 716.859H728.24C734.421 716.859 740.258 715.384 743.348 713.171L958.627 552.951H961.373L1176.65 713.171C1179.74 715.384 1185.58 716.859 1191.76 716.859H1221.29C1227.47 716.859 1232.96 715.384 1236.05 713.171L1451.33 552.951H1461.29L1676.57 713.171C1679.66 715.384 1685.49 716.859 1691.33 716.859H1720.86C1727.04 716.859 1732.88 715.384 1735.97 713.171L1920 576.261Z" fill="#FAFAFA"/>
<path d="M468.67 772.332L539.399 825.001H387.983L459.056 772.332H468.67ZM961.03 772.332L1032.1 825.001H887.897L958.97 772.332H961.03ZM0 683.812L189.871 825.001H0V683.812Z" fill="#FAFAFA"/>
<path d="M468.669 660.502L690.471 825H579.227L493.39 761.266C491.876 760.157 489.722 759.235 487.135 758.589C484.549 757.943 481.617 757.595 478.626 757.578H449.098C442.918 757.578 437.081 759.068 433.991 761.266L348.497 825H237.596L458.712 660.502H468.669ZM961.373 660.502L1183.18 825H1071.93L986.094 761.266C984.507 760.153 982.29 759.23 979.647 758.585C977.005 757.94 974.025 757.593 970.986 757.578H949.012C942.832 757.578 936.995 759.068 933.905 761.266L848.068 825H738.197L958.626 660.502H961.373ZM1682.4 825H1571.5L1486.01 761.266C1484.42 760.153 1482.2 759.23 1479.56 758.585C1476.92 757.94 1473.94 757.593 1470.9 757.578H1441.37C1435.19 757.578 1429.7 759.068 1426.61 761.266L1340.77 825H1230.21L1451.33 660.502H1461.29L1682.4 825ZM1920 683.812V825H1731.5L1920 683.812Z" fill="#FAFAFA"/>
</svg>
