<svg width="99" height="99" viewBox="0 0 99 99" fill="none" xmlns="http://www.w3.org/2000/svg">
<g filter="url(#filter0_d_476_257)">
<circle cx="49.5" cy="45.5" r="44.5" fill="white" stroke="#CACACA" stroke-width="2"/>
<path d="M34.4313 68.1516C42.6056 71.5985 56.9844 71.4016 64.5677 68.1516C68.901 68.841 76.1889 68.644 79.4389 65.8864C80.4238 65.0985 80.9162 64.1137 80.9162 62.9319C80.9162 58.3031 78.3556 54.2652 74.3177 52.2955C75.4995 51.0152 76.1889 49.2425 76.1889 47.3713C76.1889 39.4925 65.2571 37.4243 62.3026 44.6137C60.9238 43.5304 59.348 42.5455 57.6738 41.8561C60.2344 39.591 61.8101 36.341 61.8101 32.5985C61.8101 25.7046 56.1965 20.1895 49.401 20.1895C42.6056 20.1895 36.992 25.8031 36.992 32.5985C36.992 36.2425 38.5677 39.4925 41.1283 41.8561C39.4541 42.5455 37.8783 43.5304 36.4995 44.6137C35.4162 41.9546 32.7571 40.1819 29.8026 40.1819C25.8632 40.1819 22.6132 43.4319 22.6132 47.3713C22.6132 49.2425 23.3026 50.9167 24.4844 52.2955C20.545 54.3637 17.9844 58.5001 17.9844 63.0304C17.9844 64.1137 18.4768 65.0985 19.4616 65.9849C22.7116 68.644 29.9995 68.841 34.4313 68.1516ZM79.045 63.0304C79.045 63.5228 78.7495 64.0152 78.2571 64.4092C76.4844 65.8864 71.9541 66.7728 67.6207 66.4773C69.492 65.0985 70.5753 63.4243 70.5753 61.3561C70.5753 58.9925 70.1813 56.8258 69.492 54.6591C70.5753 54.5607 71.6586 54.2652 72.6435 53.7728C76.4844 55.1516 79.045 58.894 79.045 63.0304ZM69.098 42.2501C71.9541 42.2501 74.3177 44.6137 74.3177 47.4698C74.3177 50.6213 71.5601 52.9849 68.7041 52.6895C67.6207 50.2273 66.045 47.9622 64.0753 46.091C64.6662 43.9243 66.7344 42.2501 69.098 42.2501ZM39.0601 32.7955C39.0601 26.9849 43.7874 22.3561 49.4995 22.3561C55.2116 22.3561 59.9389 27.0834 59.9389 32.7955C59.9389 38.6061 55.2116 43.2349 49.4995 43.2349C43.6889 43.2349 39.0601 38.5076 39.0601 32.7955ZM49.4995 45.2046C51.8632 45.2046 54.0298 44.5152 55.901 43.4319C63.4844 46.1895 68.5071 53.3788 68.5071 61.3561C68.5071 71.1061 30.295 71.1061 30.295 61.3561C30.295 53.2804 35.3177 46.091 42.901 43.4319C44.9692 44.5152 47.1359 45.2046 49.4995 45.2046ZM29.901 42.2501C32.2647 42.2501 34.3329 43.9243 34.9238 46.1895C32.9541 48.0607 31.3783 50.2273 30.295 52.6895C27.5374 52.9849 24.5829 50.7198 24.5829 47.4698C24.6813 44.6137 26.9465 42.2501 29.901 42.2501ZM26.3556 53.7728C27.3404 54.3637 28.4238 54.6591 29.5071 54.6591C28.8177 56.7273 28.4238 58.9925 28.4238 61.3561C28.4238 62.8334 29.0147 64.8031 31.3783 66.4773C26.9465 66.7728 22.5147 65.8864 20.6435 64.4092C20.2495 64.0152 19.9541 63.5228 19.9541 63.0304C19.9541 58.894 22.5147 55.2501 26.3556 53.7728Z" fill="black"/>
</g>
<defs>
<filter id="filter0_d_476_257" x="0" y="0" width="99" height="99" filterUnits="userSpaceOnUse" color-interpolation-filters="sRGB">
<feFlood flood-opacity="0" result="BackgroundImageFix"/>
<feColorMatrix in="SourceAlpha" type="matrix" values="0 0 0 0 0 0 0 0 0 0 0 0 0 0 0 0 0 0 127 0" result="hardAlpha"/>
<feOffset dy="4"/>
<feGaussianBlur stdDeviation="2"/>
<feComposite in2="hardAlpha" operator="out"/>
<feColorMatrix type="matrix" values="0 0 0 0 0 0 0 0 0 0 0 0 0 0 0 0 0 0 0.25 0"/>
<feBlend mode="normal" in2="BackgroundImageFix" result="effect1_dropShadow_476_257"/>
<feBlend mode="normal" in="SourceGraphic" in2="effect1_dropShadow_476_257" result="shape"/>
</filter>
</defs>
</svg>
